<?xml version="1.0" ?><!DOCTYPE svg  PUBLIC '-//W3C//DTD SVG 1.1//EN'  'http://www.w3.org/Graphics/SVG/1.1/DTD/svg11.dtd'><svg enable-background="new 0 0 26 26" id="Слой_1" version="1.1" viewBox="0 0 26 26" xml:space="preserve" xmlns="http://www.w3.org/2000/svg" xmlns:xlink="http://www.w3.org/1999/xlink"><g><path d="M23.2294922,5.9677734h-2.4207764l-0.2608643-1.7949219   c-0.0021362-0.0145874-0.0111084-0.0256348-0.0144653-0.0396729c-0.0435181-0.1843262-0.1785889-0.3234253-0.3557129-0.3693237   c-0.0574341-0.0154419-0.1182251-0.0183105-0.1793823-0.0126953C19.9924927,3.7516479,19.9873047,3.7493286,19.9814453,3.75   l-0.0003052,0.000061c-0.0002441,0-0.0004272-0.000061-0.0006714-0.000061   c-0.0002441,0.000061-0.0004272,0.0001831-0.0006714,0.0002441l-1.4262695,0.2040405l-0.3875122-1.1984253   c-0.0135498-0.041687-0.0390625-0.074585-0.0615234-0.1098633c-0.012146-0.0189819-0.0187378-0.0421753-0.0331421-0.0591431   c-0.0303345-0.0358276-0.0690918-0.0610962-0.107605-0.086792c-0.0147705-0.0098877-0.0259399-0.0245972-0.041687-0.0328369   c-0.0274658-0.0142822-0.059021-0.0178833-0.0888062-0.0269165c-0.0322266-0.0098877-0.0626221-0.0246582-0.0965576-0.027832   c-0.0184326-0.0016479-0.0376587,0.0054932-0.0564575,0.0058594c-0.0457153,0.0009766-0.0915527-0.0001831-0.1372681,0.0142822   l-0.0060425,0.0018921c-0.0002441,0.000061-0.0005493,0-0.0007935,0.000061s-0.0003662,0.0003052-0.0006104,0.0003662   L7.4777222,5.5390015l-2.9970703,0.428772h-1.710144C1.7939453,5.9677734,1,6.8076172,1,7.8408203v14.1269531   C1,23,1.7939453,23.8398438,2.7705078,23.8398438h20.4589844C24.2060547,23.8398438,25,23,25,21.9677734V7.8408203   C25,6.8076172,24.2060547,5.9677734,23.2294922,5.9677734z M19.6293335,4.8110352l0.1681519,1.1567383h-8.2531738   L19.6293335,4.8110352z M17.366394,3.5332031l0.1826172,0.5648193l-3.7522583,0.5368652L17.366394,3.5332031z M23.5,21.9677734   c0,0.1982422-0.1259766,0.3720703-0.2705078,0.3720703H2.7705078C2.6259766,22.3398438,2.5,22.1660156,2.5,21.9677734V7.8408203   c0-0.2197266,0.1425781-0.3730469,0.2705078-0.3730469h20.4589844C23.3574219,7.4677734,23.5,7.6210938,23.5,7.8408203V21.9677734z   " fill="#1D1D1B"/><ellipse cx="19.8974609" cy="14.9042969" fill="#1D1D1B" rx="1" ry="1.0185547"/></g></svg>